Coordinates
version=1
nRows=9
nColumns=63
inDegrees=yes

Units are S.I. units (second, meters, Newtons, ...)
If the header above contains a line with 'inDegrees', this indicates whether rotational values are in degrees (yes) or radians (no).

endheader
time	pelvis_tilt	pelvis_list	pelvis_rotation	pelvis_tx	pelvis_ty	pelvis_tz	hip_flexion_r	hip_adduction_r	hip_rotation_r	knee_angle_r	knee_angle_r_beta	ankle_angle_r	subtalar_angle_r	mtp_angle_r	hip_flexion_l	hip_adduction_l	hip_rotation_l	knee_angle_l	knee_angle_l_beta	ankle_angle_l	subtalar_angle_l	mtp_angle_l	L5_S1_Flex_Ext	L5_S1_Lat_Bending	L5_S1_axial_rotation	L4_L5_Flex_Ext	L4_L5_Lat_Bending	L4_L5_axial_rotation	L3_L4_Flex_Ext	L3_L4_Lat_Bending	L3_L4_axial_rotation	L2_L3_Flex_Ext	L2_L3_Lat_Bending	L2_L3_axial_rotation	L1_L2_Flex_Ext	L1_L2_Lat_Bending	L1_L2_axial_rotation	L1_T12_Flex_Ext	L1_T12_Lat_Bending	L1_T12_axial_rotation	Abs_r3	Abs_r2	Abs_r1	Abs_t1	Abs_t2	neck_flexion	neck_bending	neck_rotation	arm_flex_r	arm_add_r	arm_rot_r	elbow_flex_r	pro_sup_r	wrist_flex_r	wrist_dev_r	arm_flex_l	arm_add_l	arm_rot_l	elbow_flex_l	pro_sup_l	wrist_flex_l	wrist_dev_l
      8.66700000	    -43.79760704	      1.59966998	      0.12199531	     -0.24030350	      1.04139601	     -0.00826773	    103.45279409	     -9.27485403	     -2.88711890	     77.45098852	      1.35177476	     18.18443434	      5.57447978	      0.00000000	     91.12300861	     -7.68628704	     -1.34553674	     93.41344261	      1.63037214	      7.06985576	      2.27314855	      0.00000000	     -0.04438386	     -0.06284811	     -0.27838899	     -0.08242527	     -0.08358798	     -0.29578831	     -0.07291825	     -0.15280889	     -0.29578831	     -0.05072632	     -0.15280889	     -0.24359037	     -0.04121485	     -0.12815986	     -0.22619106	     -0.02536094	     -0.09735172	     -0.20879175	     -0.31702949	     -0.71095037	     -1.54831606	      0.00000000	      0.00000000	     -0.00000000	      0.00000000	      0.00000000	     75.16906965	    -11.12947428	     27.92094654	     34.31559429	     32.89237531	      0.00000000	      5.00000014	     75.74370868	    -10.39115572	     23.59114140	     30.65858731	     40.46379294	      0.00000000	      5.00000014
      8.67500000	    -43.71784123	      1.00974114	      0.19159189	     -0.23961912	      1.04114317	     -0.00856969	    101.55192475	     -9.31366603	     -3.66031685	     74.74087306	      1.30447432	     17.12073381	      5.40943505	      0.00000000	     92.61404293	     -7.62289963	     -0.18358927	     96.19032593	      1.67883790	      7.35820947	      2.46005336	      0.00000000	     -0.04636876	      0.00848596	     -0.28179108	     -0.08611143	      0.01128633	     -0.29940302	     -0.07617924	      0.02063277	     -0.29940302	     -0.05299486	      0.02063277	     -0.24656719	     -0.04305803	      0.01730457	     -0.22895525	     -0.02649511	      0.01314476	     -0.21134331	     -0.33120742	      0.09599490	     -1.56723743	      0.00000000	      0.00000000	     -0.00000000	      0.00000000	      0.00000000	     75.19669400	    -11.15625936	     27.73420136	     34.06866170	     32.84277780	      0.00000000	      5.00000014	     75.64058634	    -10.30249275	     24.09282391	     30.70488190	     40.54775549	      0.00000000	      5.00000014
      8.68300000	    -43.64576111	      0.72664329	      0.41262879	     -0.23887040	      1.04092558	     -0.00878275	     99.71209940	     -9.36578726	     -4.04797816	     72.06790248	      1.25782218	     16.03620912	      5.12015687	      0.00000000	     94.01104654	     -7.34318710	      0.71216667	     98.74239966	      1.72337999	      7.79371150	      2.89046550	      0.00000000	     -0.04628244	      0.03269070	     -0.32518894	     -0.08595113	      0.04347863	     -0.34551325	     -0.07603743	      0.07948417	     -0.34551325	     -0.05289620	      0.07948417	     -0.28454032	     -0.04297788	      0.06666288	     -0.26421601	     -0.02644579	      0.05063790	     -0.24389170	     -0.33059086	      0.36980375	     -1.80860331	      0.00000000	      0.00000000	     -0.00000000	      0.00000000	      0.00000000	     75.15734825	    -11.24690046	     27.79424745	     33.92698526	     32.83074009	      0.00000000	      5.00000014	     75.57575820	    -10.33622954	     24.47484237	     30.78621311	     40.60948637	      0.00000000	      5.00000014
      8.69200000	    -43.56535585	      0.46921379	      0.60872006	     -0.23812316	      1.04073680	     -0.00889416	     97.83786623	     -9.36460726	     -4.46588676	     69.41322894	      1.21148939	     14.97741770	      4.82873409	      0.00000000	     95.43095698	     -7.07780611	      1.57174390	    101.17873356	      1.76590203	      8.23049431	      3.44875975	      0.00000000	     -0.04810757	      0.05136549	     -0.36467268	     -0.08934056	      0.06831611	     -0.38746472	     -0.07903592	      0.12489006	     -0.38746472	     -0.05498214	      0.12489006	     -0.31908859	     -0.04467269	      0.10474451	     -0.29629655	     -0.02748866	      0.07956515	     -0.27350451	     -0.34362755	      0.58105672	     -2.02820003	      0.00000000	      0.00000000	     -0.00000000	      0.00000000	      0.00000000	     75.10871910	    -11.34598115	     27.93408475	     33.77427615	     32.82974157	      0.00000000	      5.00000014	     75.52894465	    -10.38454099	     24.82821672	     30.90235603	     40.66458413	      0.00000000	      5.00000014
      8.70000000	    -43.50927267	      0.18399606	      0.75800943	     -0.23742039	      1.04058596	     -0.00895682	     95.94876963	     -9.31973009	     -5.03441221	     66.74990494	      1.16500562	     13.94638884	      4.54118865	      0.00000000	     96.90467182	     -6.80744659	      2.47771261	    103.48768375	      1.80620082	      8.67058493	      4.10314334	      0.00000000	     -0.04592928	      0.07244820	     -0.39852499	     -0.08529527	      0.09635610	     -0.42343280	     -0.07545722	      0.17615055	     -0.42343280	     -0.05249258	      0.17615055	     -0.34870936	     -0.04264993	      0.14773636	     -0.32380155	     -0.02624399	      0.11222226	     -0.29889374	     -0.32806828	      0.81954850	     -2.21647643	      0.00000000	      0.00000000	     -0.00000000	      0.00000000	      0.00000000	     75.05706072	    -11.41904066	     28.15028747	     33.64183801	     32.83859729	      0.00000000	      5.00000014	     75.46162943	    -10.43927599	     25.18207974	     31.04801340	     40.71746220	      0.00000000	      5.00000014
      8.70800000	    -43.45480313	      0.33609335	      1.21418482	     -0.23680679	      1.04057457	     -0.00915984	     94.20994295	     -9.54859665	     -5.08209769	     64.23406776	      1.12109597	     12.98429594	      4.58312654	      0.00000000	     98.22490398	     -6.27050208	      2.71532342	    105.48030303	      1.84097858	      9.03313970	      4.31448457	      0.00000000	     -0.04664383	      0.03222903	     -0.49244241	     -0.08662225	      0.04286461	     -0.52322006	     -0.07663115	      0.07836167	     -0.52322006	     -0.05330923	      0.07836167	     -0.43088711	     -0.04331346	      0.06572144	     -0.40010946	     -0.02665228	      0.04992277	     -0.36933181	     -0.33317220	      0.36458125	     -2.73881694	      0.00000000	      0.00000000	     -0.00000000	      0.00000000	      0.00000000	     74.88929125	    -11.41008188	     28.23805701	     33.60901365	     32.84411860	      0.00000000	      5.00000014	     75.49831602	    -10.51027946	     25.30555687	     31.11439447	     40.73709502	      0.00000000	      5.00000014
      8.71700000	    -43.40516955	     -0.35751203	      1.15251436	     -0.23617460	      1.04049058	     -0.00919400	     92.15900442	     -9.29947680	     -6.34470355	     61.53228995	      1.07394106	     12.00265363	      4.30149609	      0.00000000	     99.86260150	     -6.19908113	      3.95481692	    107.62899195	      1.87848028	      9.47567059	      5.19110309	      0.00000000	     -0.04632091	      0.10868773	     -0.48523650	     -0.08602256	      0.14455468	     -0.51556378	     -0.07610062	      0.26426334	     -0.51556378	     -0.05294017	      0.26426334	     -0.42458194	     -0.04301360	      0.22163601	     -0.39425466	     -0.02646777	      0.16835729	     -0.36392738	     -0.33086563	      1.22949730	     -2.69873985	      0.00000000	      0.00000000	     -0.00000000	      0.00000000	      0.00000000	     74.94821323	    -11.53117063	     28.46904985	     33.47996931	     32.88844564	      0.00000000	      5.00000014	     75.37409433	    -10.59591635	     25.79735711	     31.35845941	     40.82401284	      0.00000000	      5.00000014
      8.72500000	    -43.37241072	     -0.65655822	      1.45493466	     -0.23567734	      1.04052740	     -0.00954051	     90.30430138	     -9.42442526	     -7.21178269	     59.06312921	      1.03084607	     10.93930253	      4.18541300	      0.00000000	    101.34471555	     -5.81839345	      4.58589762	    109.47088174	      1.91062732	     10.13967943	      6.01800128	      0.00000000	     -0.04621769	      0.13138223	     -0.54750033	     -0.08583087	      0.17473837	     -0.58171910	     -0.07593104	      0.31944275	     -0.58171910	     -0.05282220	      0.31944275	     -0.47906279	     -0.04291775	      0.26791464	     -0.44484402	     -0.02640879	      0.20351107	     -0.41062525	     -0.33012833	      1.48622207	     -3.04503260	      0.00000000	      0.00000000	     -0.00000000	      0.00000000	      0.00000000	     74.97065202	    -11.65833512	     28.95196748	     33.41783663	     32.96286260	      0.00000000	      5.00000014	     75.36206431	    -10.68749633	     26.16277481	     31.47589550	     40.88343899	      0.00000000	      5.00000014
      8.73300000	    -43.35149441	     -0.45730955	      1.98834435	     -0.23529596	      1.04068980	     -0.00986398	     88.67196697	     -9.76862388	     -7.43170721	     56.84841757	      0.99219206	      9.93935590	      4.32375935	      0.00000000	    102.66465327	     -5.31906678	      4.43914913	    111.00151727	      1.93734195	     10.62301593	      6.16323442	      0.00000000	     -0.04692862	      0.08336011	     -0.65603366	     -0.08715115	      0.11086894	     -0.69703576	     -0.07709904	      0.20268177	     -0.69703576	     -0.05363472	      0.20268177	     -0.57402945	     -0.04357792	      0.16998793	     -0.53302735	     -0.02681502	      0.12912481	     -0.49202525	     -0.33520647	      0.94298621	     -3.64866241	      0.00000000	      0.00000000	     -0.00000000	      0.00000000	      0.00000000	     74.82429343	    -11.64839139	     29.09356426	     33.43088947	     33.00185599	      0.00000000	      5.00000014	     75.44887182	    -10.77663001	     26.26657346	     31.52021053	     40.90762973	      0.00000000	      5.00000014
